<?xml version="1.0" encoding="iso-8859-1"?>
<!-- Generator: Adobe Illustrator 19.0.0, SVG Export Plug-In . SVG Version: 6.00 Build 0)  -->
<svg version="1.1" id="Layer_1" xmlns="http://www.w3.org/2000/svg" xmlns:xlink="http://www.w3.org/1999/xlink" x="0px" y="0px"
	 viewBox="0 0 490.8 490.8" style="enable-background:new 0 0 490.8 490.8;" xml:space="preserve">
<g>
	<g>
		<path d="M470,45.3h-82.3V21.4c0-11.5-9.4-20.8-20.8-20.8s-20.8,9.4-20.8,20.8v24H143.8v-24c0-11.5-9.4-20.8-20.8-20.8
			c-11.5,0-20.8,9.4-20.8,20.8v24H20.8C9.3,45.4,0,54.8,0,66.2v403.2c0,11.5,9.4,20.8,20.8,20.8h448.1c11.5,0,20.8-9.4,21.9-20.8
			V66.2C490.8,54.7,481.4,45.3,470,45.3z M449.1,449.6H40.6V197.5h408.5V449.6z M449.1,155.8H40.6V87h61.5v17.7
			c0,11.5,9.4,20.8,20.8,20.8c11.5,0,20.8-9.4,20.8-19.8V87h202.2v17.7c0,11.5,9.4,20.8,20.8,20.8s19.8-9.4,20.8-19.8V87H449v68.8
			H449.1z"/>
	</g>
	<g>
		<g>
			<path d="M169.5,409.9c-8.3,0-15-6.7-15-15V267.2h-7.8c-8.3,0-15-6.7-15-15s6.7-15,15-15h22.8c8.3,0,15,6.7,15,15v142.7
				C184.5,403.2,177.8,409.9,169.5,409.9z"/>
		</g>
		<g>
			<path d="M344.1,409.9h-98.7c-6,0-11.5-3.6-13.8-9.2s-1.1-12,3.1-16.3l74-75.2c3.2-4.5,4.9-9.8,4.9-15.4
				c0-14.7-11.9-26.6-26.6-26.6s-26.6,11.9-26.6,26.6c0,8.3-6.7,15-15,15s-15-6.7-15-15c0-31.2,25.4-56.6,56.6-56.6
				s56.6,25.4,56.6,56.6c0,22.1-12.4,35.3-12.8,35.7l-49.6,50.4H344c8.3,0,15,6.7,15,15S352.3,409.9,344.1,409.9z"/>
		</g>
	</g>
</g>
<g>
</g>
<g>
</g>
<g>
</g>
<g>
</g>
<g>
</g>
<g>
</g>
<g>
</g>
<g>
</g>
<g>
</g>
<g>
</g>
<g>
</g>
<g>
</g>
<g>
</g>
<g>
</g>
<g>
</g>
</svg>
