<?xml version="1.0" encoding="iso-8859-1"?>
<!-- Generator: Adobe Illustrator 19.1.0, SVG Export Plug-In . SVG Version: 6.00 Build 0)  -->
<svg version="1.1" id="Capa_1" xmlns="http://www.w3.org/2000/svg" xmlns:xlink="http://www.w3.org/1999/xlink" x="0px" y="0px"
	 viewBox="0 0 488.594 488.594" style="enable-background:new 0 0 488.594 488.594;" xml:space="preserve">
<g>
	<g>
		<rect y="49.837" width="13.828" height="302.065"/>
		<path d="M173.428,130.505c-44.687,0-97.953,19.394-97.953,111.774c0,73.2,33.561,113.509,94.495,113.509
			c58.95,0,92.767-40.116,92.768-110.052C262.738,174.659,228.52,130.505,173.428,130.505z M169.97,341.96
			c-53.522,0-80.667-33.54-80.667-99.681c0-65.906,27.511-97.946,84.124-97.946c17.707,0,75.482,7.315,75.482,101.403
			C248.909,281.669,238.655,341.96,169.97,341.96z"/>
		<path d="M474.766,134.528v33.333c-15.744-14.948-45.088-37.364-79.513-37.364c-37.323,0-81.815,18.89-81.815,108.898
			c0,96.197,44.493,116.386,81.815,116.386c33.23,0,63.458-21.676,79.513-35.67v42.584c0,31.487-4.176,62.227-54.158,62.227
			c-53.481,0-88.107-11.194-94.509-13.434l-4.577,13.047c6.768,2.378,43.358,14.222,99.086,14.222
			c67.986,0,67.986-53.294,67.986-76.063V134.528H474.766z M474.766,301.145c-8.159,8.235-42.757,40.814-79.513,40.814
			c-45.108,0-67.987-34.501-67.987-102.557c0-63.084,22.879-95.069,67.987-95.069c38.816,0,72.094,35.054,79.513,43.462V301.145z"/>
	</g>
</g>
<g>
</g>
<g>
</g>
<g>
</g>
<g>
</g>
<g>
</g>
<g>
</g>
<g>
</g>
<g>
</g>
<g>
</g>
<g>
</g>
<g>
</g>
<g>
</g>
<g>
</g>
<g>
</g>
<g>
</g>
</svg>
